<svg width="16" height="16" viewBox="0 0 16 16" fill="none" xmlns="http://www.w3.org/2000/svg">
<path d="M8 10.1875C9.20812 10.1875 10.1875 9.20812 10.1875 8C10.1875 6.79188 9.20812 5.8125 8 5.8125C6.79188 5.8125 5.8125 6.79188 5.8125 8C5.8125 9.20812 6.79188 10.1875 8 10.1875Z" fill="black"/>
<path fill-rule="evenodd" clip-rule="evenodd" d="M8 12.5938C10.5371 12.5938 12.5938 10.5371 12.5938 8C12.5938 5.46294 10.5371 3.40625 8 3.40625C5.46294 3.40625 3.40625 5.46294 3.40625 8C3.40625 10.5371 5.46294 12.5938 8 12.5938ZM8 11.5938C9.98477 11.5938 11.5938 9.98477 11.5938 8C11.5938 6.01523 9.98477 4.40625 8 4.40625C6.01523 4.40625 4.40625 6.01523 4.40625 8C4.40625 9.98477 6.01523 11.5938 8 11.5938Z" fill="black"/>
<path fill-rule="evenodd" clip-rule="evenodd" d="M8 15C11.866 15 15 11.866 15 8C15 4.13401 11.866 1 8 1C4.13401 1 1 4.13401 1 8C1 11.866 4.13401 15 8 15ZM8 14C11.3137 14 14 11.3137 14 8C14 4.68629 11.3137 2 8 2C4.68629 2 2 4.68629 2 8C2 11.3137 4.68629 14 8 14Z" fill="black"/>
</svg>
